<?xml version="1.0" encoding="utf-8"?>
<!-- Generator: Adobe Illustrator 17.0.0, SVG Export Plug-In . SVG Version: 6.00 Build 0)  -->
<!DOCTYPE svg PUBLIC "-//W3C//DTD SVG 1.1//EN" "http://www.w3.org/Graphics/SVG/1.1/DTD/svg11.dtd">
<svg version="1.1" id="Layer_1" xmlns="http://www.w3.org/2000/svg" xmlns:xlink="http://www.w3.org/1999/xlink" x="0px" y="0px"
	 width="620.767px" height="589.535px" viewBox="0 0 620.767 589.535" enable-background="new 0 0 620.767 589.535"
	 xml:space="preserve">
<path fill="#FFFFFF" d="M117.831,296.233c-8.258,22.94-12.334,43.259-7.363,65.074c3.553,15.559,40.007,6.645,36.463-8.861
	c-3.934-17.376-1.249-33.44,5.352-51.764C158.139,284.368,123.742,279.779,117.831,296.233"/>
<g>
	<g id="XMLID_4_">
		<g>
			<path fill="#EB2C3B" d="M550.79,472.046c-19.025,23.858-46.304,39.501-85.765,39.314c-10.864,0.08-26.68-4.447-41.245-14.152
				c-21.062-14.032-41.578-28.677-54.558-51.043c-16.602-28.61-15.736-59.125-5.365-89.08c4.7-13.54,20.489-12.648,32.311-16.349
				c10.85-3.408,21.461-7.562,32.059-11.702c1.997-0.772,4.3-2.663,5.006-4.58c8.414-22.633,29.729-26.999,48.647-34.748
				c34.721-14.179,79.015,18.279,89.439,48.367C587.894,385.882,582.276,432.559,550.79,472.046z"/>
			<path fill="#B2D235" d="M240.988,48.748c23.139,16.495,42.43,37.597,61.627,59.031c37.916,42.323,65.834,90.491,87.895,142.599
				c10.078,23.818,22.593,46.597,33.976,69.828c-1.93,2.29-3.848,4.566-5.565,6.603c-1.478-0.759-2.383-0.905-2.623-1.385
				c-16.815-34.734-34.282-69.189-50.165-104.337c-22.952-50.804-59.258-90.318-101.994-124.693
				c-8.374-6.75-17.56-12.488-28.331-20.077c-0.373,5.525-0.905,8.041-0.639,10.451c2.436,22.926,7.615,45.918,6.896,68.737
				c-0.959,30.554-6.044,61.028-10.185,91.436c-2.476,18.199-5.618,36.425-10.171,54.199c-3.461,13.58-9.066,26.733-14.924,39.514
				c-1.504,3.288-7.562,4.473-11.543,6.63c-0.999-0.825-2.01-1.638-3.009-2.463c1.811-5.911,3.435-11.889,5.485-17.72
				c21.834-62.027,26.147-126.224,23.032-191.18c-0.999-20.716-4.673-41.285-6.43-61.974c-0.32-3.688,1.691-8.987,4.487-11.236
				C225.279,57.509,232.894,53.701,240.988,48.748z"/>
			<path fill="#EB2C3B" d="M76.262,363.116c13.127-23.525,39.301-38.888,71.506-28.957c14.365,4.433,26.533,11.037,38.516,19.464
				c3.328,2.343,10.078,1.797,14.472,0.28c16.935-5.858,32.844-14.938,51.882-13.14c12.275,1.158,21.914,6.577,26.281,17.574
				c5.419,13.633,8.627,28.144,12.794,42.283c-3.754,39.008-16.615,73.263-34.588,106.467c-9.426,17.414-22.952,27.852-40.792,33.47
				c-4.566,1.438-10.784-0.28-15.603-2.17c-8.374-3.288-16.296-7.762-24.31-11.902c-1.584-0.812-3.821-2.21-4.021-3.581
				c-1.118-7.868-6.124-5.259-10.305-3.954c-4.021,1.238-7.881,3.062-11.729,4.806c-19.131,8.707-32.152,4.806-48.008-8.414
				c-13.54-11.29-24.936-22.939-29.689-40.126C62.217,437.445,56.319,398.863,76.262,363.116z"/>
			<path d="M252.638,340.763c-19.038-1.797-34.948,7.282-51.882,13.14c-4.393,1.518-11.143,2.064-14.472-0.28
				c-11.982-8.427-24.15-15.031-38.516-19.464c-32.205-9.932-58.379,5.432-71.506,28.957
				c-19.943,35.746-14.046,74.328-3.595,112.098c4.753,17.188,16.149,28.837,29.689,40.126c15.856,13.22,28.877,17.121,48.008,8.414
				c3.848-1.744,7.708-3.568,11.729-4.806c4.18-1.305,9.186-3.914,10.305,3.954c0.2,1.371,2.436,2.769,4.021,3.581
				c8.015,4.14,15.936,8.614,24.31,11.902c4.819,1.89,11.037,3.608,15.603,2.17c17.84-5.618,31.366-16.056,40.792-33.47
				c17.973-33.203,30.834-67.459,34.588-106.467c-4.167-14.139-7.376-28.65-12.794-42.283
				C274.551,347.34,264.912,341.921,252.638,340.763z M481.88,289.706c-18.918,7.748-40.233,12.115-48.647,34.748
				c-0.706,1.917-3.009,3.808-5.006,4.58c-10.597,4.14-21.208,8.294-32.059,11.702c-11.822,3.701-27.612,2.809-32.311,16.349
				c-10.371,29.955-11.236,60.469,5.365,89.08c12.98,22.366,33.496,37.011,54.558,51.043c14.565,9.705,30.381,14.232,41.245,14.152
				c39.461,0.186,66.74-15.457,85.765-39.314c31.486-39.487,37.104-86.164,20.529-133.972
				C560.895,307.986,516.601,275.528,481.88,289.706z M418.921,326.811c1.717-2.037,3.635-4.314,5.565-6.603
				c-11.383-23.232-23.897-46.011-33.976-69.828c-22.06-52.108-49.978-100.276-87.895-142.599
				c-19.198-21.434-38.489-42.536-61.627-59.031c-8.095,4.953-15.71,8.76-22.18,13.966c-2.796,2.25-4.806,7.549-4.487,11.236
				c1.757,20.689,5.432,41.258,6.43,61.974c3.115,64.956-1.198,129.153-23.032,191.18c-2.05,5.831-3.674,11.809-5.485,17.72
				c0.999,0.825,2.01,1.638,3.009,2.463c3.981-2.157,10.038-3.342,11.543-6.63c5.858-12.781,11.463-25.934,14.924-39.514
				c4.553-17.773,7.695-35.999,10.171-54.199c4.14-30.408,9.226-60.882,10.185-91.436c0.719-22.819-4.46-45.811-6.896-68.737
				c-0.266-2.41,0.266-4.926,0.639-10.451c10.77,7.589,19.957,13.327,28.331,20.077c42.736,34.375,79.041,73.889,101.994,124.693
				c15.883,35.147,33.35,69.602,50.165,104.337C416.538,325.905,417.443,326.052,418.921,326.811z M522.579,505.289
				c-6.204,3.501-11.862,8.441-18.479,10.624c-7.722,2.543-16.162,3.195-24.363,3.848c-3.674,0.293-7.788-2.689-11.25-1.984
				c-23.738,4.833-41.018-8.667-57.846-21.168c-14.578-10.85-28.158-23.445-40.419-36.878c-22.673-24.843-24.63-54.957-18.372-86.39
				c1.185-5.978,2.17-12.089,4.194-17.813c6.763-19.091,24.789-19.451,40.433-23.631c1.851-0.479,3.834-0.426,5.698-0.852
				c0.652-0.146,1.158-0.959,2.729-2.343c-7.708-17.094-15.284-34.721-23.551-52.002c-14.152-29.582-27.718-59.524-43.428-88.267
				c-16.176-29.609-61.122-74.768-87.149-90.131c1.118,13.313,3.115,25.282,2.916,37.224c-0.439,28.065-0.679,56.222-3.461,84.1
				c-1.731,17.227-7.882,34.042-12.235,50.99c-5.578,21.767-11.33,43.481-17.134,65.675c1.531-0.386,4.753-0.959,7.788-2.024
				c23.711-8.387,49.898,3.528,60.722,26.147c8.72,18.239,9.16,36.891,7.509,56.302c-3.115,36.345-17.8,68.644-34.229,100.329
				c-7.961,15.337-23.032,21.754-38.036,27.865c-3.515,1.438-7.149,2.703-10.837,3.555c-7.029,1.624-13.1,2.716-20.13-3.062
				c-13.46-11.05-28.996-16.588-47.023-10.105c-14.152,5.086-26.866,1.904-40.486-5.379c-36.785-19.664-45.718-53.4-49.725-90.438
				c-2.782-25.695-1.531-51.256,9.559-74.714c13.739-28.996,48.061-51.23,82.529-39.607c11.516,3.887,23.019,7.842,35.374,12.049
				c19.704-54.691,29.968-111.979,27.931-170.97c-1.132-32.99-5.738-65.861-8.188-98.825c-0.28-3.661,2.263-9.026,5.245-11.143
				c8.334-5.924,17.241-11.41,26.64-15.337c4.274-1.784,12.142-1.531,15.164,1.265c45.558,42.243,85.991,88.906,118.063,142.36
				c7.416,12.355,13.553,25.508,19.797,38.542c11.955,24.976,23.644,50.098,35.267,75.234c1.731,3.754,2.53,7.948,4.007,12.728
				c17.44-16.096,36.811-26.414,59.577-30.727c36.652-6.95,74.475,17.294,88.6,48.274c15.696,34.442,17.374,69.482,1.664,104.776
				c-3.235,7.242-3.688,15.71-6.803,23.019C561.241,478.929,543.321,493.56,522.579,505.289z"/>
		</g>
		<g>
		</g>
	</g>
	<g>
		<path fill="#FFFFFF" d="M402.371,359.145c-34.498,3-25.499,58.497,9,52.497c28.499-6,23.999-62.997-11.999-52.497"/>
	</g>
	<g>
		<path fill="#FFFFFF" d="M98.371,357.145c-34.498,3-25.499,58.497,9,52.497c28.499-6,23.999-62.997-11.999-52.497"/>
	</g>
</g>
</svg>
